<svg width="191" height="120" viewBox="0 0 191 120" xmlns="http://www.w3.org/2000/svg"><g fill="none" fill-rule="evenodd"><path d="M172.566 8.614c0-4.677-3.793-8.468-8.47-8.468H37.035c-4.677 0-8.47 3.79-8.47 8.468v96.532h144V8.614" fill="#333030"/><path d="M34.566 6.146h133v93h-133v-93z" fill="#E7E6E6"/><path d="M124.284 109.146H10.566c1.81 5.79 7.286 10 13.765 10H176.8c6.48 0 11.957-4.21 13.766-10h-66.282" fill="#E0E1E1"/><path d="M72.875 113.146h52.382c3.125 0 5.848-1.61 7.31-4h-67c1.46 2.39 4.183 4 7.308 4" fill="#CDCCCB"/><path d="M83.566 6.146h-14l97 93v-93h-83z" fill="#ECECEC"/><path d="M44.566 71.146h73v20h-73v-20zM122.566 71.146h35v20h-35v-20z" fill="#CFD8DC"/><path d="M44.566 37.146h113v15h-113v-15z" fill="#CCCBCB"/><path d="M44.566 31.146h113v34h-113v-34z" fill="#00B1DD"/><path d="M49.566 37.146h48v9h-48v-9z" fill="#FFF"/><path d="M49.566 51.146h101v9h-101v-9z" fill="#F1AE23"/><path d="M102.566 37.146h48v9h-48v-9z" fill="#FFF"/><path d="M44.566 14.146h113v12h-113v-12z" fill="#CFD8DC"/><path d="M21.516 82.083c-.544.16-1.162.015-1.563-.414-.408-.437-.806-.877-1.195-1.32-.525-.6-.435-1.488.2-1.984.635-.495 1.577-.41 2.102.19.37.42.746.837 1.133 1.25.545.583.486 1.474-.132 1.988-.163.135-.35.232-.544.29M16.132 74.577c-.55.162-1.17-.04-1.487-.53-.578-.887-1.132-1.806-1.644-2.73-.333-.6-.09-1.344.545-1.66.632-.315 1.418-.086 1.752.515.485.875 1.008 1.743 1.555 2.583.377.578.188 1.336-.42 1.693-.097.056-.197.1-.3.13zm-4.19-8.257c-.66.195-1.372-.138-1.606-.76-.22-.585-.43-1.18-.622-1.77-.134-.41-.262-.82-.383-1.233-.19-.655.203-1.328.903-1.514.69-.182 1.405.2 1.598.855.114.39.235.777.362 1.164.182.556.38 1.118.587 1.67.24.64-.112 1.343-.786 1.572l-.053.016zm3.726-35.298c-.35.103-.745.065-1.08-.136-.605-.363-.784-1.123-.4-1.697.592-.888 1.23-1.76 1.896-2.596.432-.542 1.245-.65 1.816-.24.572.41.686 1.18.254 1.722-.623.782-1.22 1.6-1.775 2.43-.173.257-.43.433-.712.516zM21.098 23.794c-.417.13-.89.023-1.212-.32-.452-.48-.435-1.242.04-1.702.353-.342.714-.678 1.083-1.008.49-.44 1.24-.393 1.676.106.434.498.387 1.26-.105 1.7-.345.31-.684.624-1.015.944-.137.134-.297.226-.467.28" fill="#B3D13E"/><path d="M20.7 43.455l-.768-2.445-3.093.427c-.39-.635-.868-1.198-1.414-1.682l.957-2.943-2.292-1.19-1.873 2.454c-.715-.175-1.46-.248-2.216-.205l-1.42-2.737-2.475.76.43 3.03c-.65.386-1.226.86-1.718 1.403l-2.94-.96L.672 41.63 3.115 43.5c-.178.712-.25 1.45-.208 2.204L.15 47.074l.767 2.446 3.062-.383c.394.645.878 1.214 1.433 1.702l-.972 2.896 2.293 1.194 1.897-2.42c.72.173 1.464.243 2.22.198l1.392 2.74 2.473-.76-.39-3.054c.645-.39 1.218-.866 1.705-1.41l2.972.944 1.205-2.265-2.49-1.856c.173-.706.243-1.437.2-2.18l2.782-1.412zm-9.2 5.238c-1.904.584-3.927-.468-4.52-2.352-.59-1.88.476-3.88 2.38-4.464 1.905-.584 3.93.47 4.52 2.35.59 1.884-.475 3.883-2.38 4.467z" fill="#31BBE1"/></g></svg>