<svg width="201" height="120" viewBox="0 0 201 120" xmlns="http://www.w3.org/2000/svg"><g transform="translate(.316 .146)" fill="none" fill-rule="evenodd"><path d="M162 8.56c0-4.677-3.968-8.56-8.647-8.56H26.28C21.6 0 18 3.883 18 8.56V105h144V8.56" id="Fill-1" fill="#333030"/><path d="M24 6h132v93H24V6z" id="Fill-2" fill="#ECEFF1"/><path d="M113.718 109H0c1.81 5.77 7.286 10 13.765 10h152.47c6.48 0 11.956-4.23 13.765-10h-66.282" id="Fill-3" fill="#E0E1E1"/><path d="M62.31 114h52.38c3.126 0 5.848-2.273 7.31-5H55c1.462 2.727 4.184 5 7.31 5" id="Fill-4" fill="#CDCCCB"/><rect fill="#CFD8DC" x="34" y="43" width="53" height="31" rx="2"/><rect fill="#CFD8DC" x="93" y="43" width="53" height="31" rx="2"/><path d="M34 16h112v21H34V16z" fill="#CFD8DC"/><path d="M34 83.01c0-1.11.898-2.01 1.997-2.01h49.006c1.103 0 1.997.902 1.997 2.01v7.98c0 1.11-.898 2.01-1.997 2.01H35.997C34.894 93 34 92.098 34 90.99v-7.98z" fill="#F1AE23"/><path d="M199.943 83.36c.907 13.222-9.078 24.676-22.3 25.583-13.225.907-24.68-9.078-25.586-22.3-.906-13.225 9.078-24.68 22.3-25.586 13.225-.906 24.68 9.078 25.586 22.302" fill="#B2D23E"/><path d="M167.413 12.32c.403-.38 1.007-.435 1.468-.09.842.628 1.674 1.296 2.473 1.986.52.45.607 1.272.194 1.838-.41.564-1.167.66-1.687.212-.757-.652-1.543-1.285-2.338-1.88-.547-.407-.687-1.22-.31-1.818.058-.093.125-.175.2-.247zm6.812 6.326c.482-.458 1.216-.424 1.66.087.417.478.83.972 1.226 1.467.276.344.547.692.812 1.043.42.56.354 1.375-.166 1.842-.513.46-1.27.378-1.69-.18-.25-.333-.507-.66-.767-.986-.375-.468-.764-.934-1.158-1.386-.457-.525-.436-1.353.045-1.85l.038-.038zm10.783 33.866c.257-.243.606-.367.968-.308.657.107 1.11.773 1.01 1.488-.152 1.104-.347 2.214-.58 3.298-.153.703-.8 1.14-1.445.975-.645-.165-1.046-.87-.894-1.573.218-1.015.4-2.054.544-3.088.044-.32.19-.595.398-.792z" fill="#B3D13E"/><path d="M183.834 36.053c-1.128-.23-1.844-.397-2.166-.507-.314-.11-.558-.25-.725-.408-.17-.16-.29-.36-.353-.608-.105-.4-.037-.763.208-1.084.242-.317.646-.54 1.224-.67.482-.11.983-.157 1.515-.152.526-.002 1.21.065 2.047.182l.41-2.424c-.812-.13-1.576-.204-2.292-.216-.31-.004-.618.017-.93.044l-.393-1.545-2.614.587.404 1.578c-.83.347-1.492.796-1.947 1.38-.68.873-.875 1.892-.57 3.074.16.63.43 1.147.808 1.556.382.41.84.748 1.368.997.525.257 1.276.48 2.243.665 1.042.21 1.732.368 2.086.49.35.12.637.26.838.434.21.17.35.387.418.645.116.466.035.863-.262 1.178-.296.32-.772.552-1.437.704-.55.125-1.185.18-1.896.163-.71-.014-1.598-.114-2.665-.297l.673 2.628c1.19.25 2.468.23 3.826-.03l.385 1.473 2.613-.587-.443-1.71c.604-.324 1.106-.71 1.48-1.166.752-.902.97-1.958.663-3.165-.227-.867-.66-1.548-1.31-2.034-.65-.488-1.717-.88-3.204-1.175z" fill="#31BBE1"/><path d="M176 74c6.062 0 11 4.938 11 11s-4.938 11-11 11-11-4.938-11-11 4.938-11 11-11zm0-2c-7.193 0-13 5.836-13 13s5.807 13 13 13 13-5.836 13-13-5.807-13-13-13zm5.633 17.897c.48-.42.48-1.094.06-1.542-.45-.45-1.168-.45-1.646-.056-1.108.98-2.545 1.513-4.04 1.513-1.498 0-2.934-.533-4.042-1.514-.48-.422-1.197-.394-1.646.055-.45.448-.42 1.12.06 1.542 1.525 1.346 3.53 2.103 5.626 2.103 2.095-.028 4.1-.757 5.627-2.103zM180 84c1.105 0 2-.895 2-2s-.895-2-2-2-2 .895-2 2 .895 2 2 2zm-8 0c1.105 0 2-.895 2-2s-.895-2-2-2-2 .895-2 2 .895 2 2 2z" fill="#FFF"/><g transform="translate(126 82)"><circle fill="#E91B31" cx="5" cy="5" r="5"/><path d="M10 10c2.76 0 5-2.24 5-5s-2.24-5-5-5-5 2.24-5 5 2.24 5 5 5z" fill="#FCAE28"/></g><path d="M105.5 90l.77-6h1.23l-.77 6h-1.23zM103.844 84l-1.468 4.127-.174-.89-.517-2.697s-.063-.54-.73-.54h-2.427l-.028.1s.742.158 1.61.688L101.447 90h1.604l2.45-6h-1.656M116.95 90h1.55l-1.35-6h-1.356c-.626 0-.78.447-.78.447L112.5 90h1.758l.352-.89h2.143l.198.89zm-1.854-2.122l.886-2.246.498 2.246h-1.384zM112.26 85.498l.24-1.245s-.736-.253-1.504-.253c-.83 0-2.8.327-2.8 1.92 0 1.497 2.312 1.515 2.312 2.3 0 .788-2.074.648-2.76.15l-.248 1.303s.747.327 1.888.327c1.14 0 2.863-.533 2.863-1.984 0-1.507-2.333-1.648-2.333-2.303s1.63-.57 2.344-.215" fill="#0066B2"/><path d="M101.94 84.5s-.067-.5-.788-.5h-2.62l-.032.063s1.26.15 2.468.72c1.155.54.972 1.717.972 1.717v-2z" fill="#F9A533"/></g></svg>