<svg width="182" height="152" viewBox="0 0 182 152" xmlns="http://www.w3.org/2000/svg"><g transform="translate(.566 -.125)" fill="none" fill-rule="evenodd"><path d="M162.523 41.58c0-4.69-3.802-8.493-8.493-8.493H26.638c-4.69 0-8.492 3.802-8.492 8.492v96.817h144.377V41.58" fill="#333030"/><path d="M24.09 39.032h132.487v93.42H24.09v-93.42z" fill="#E7E6E6"/><path d="M114.114 141.794H.098c1.814 5.9 7.305 10.192 13.8 10.192h152.87c6.497 0 11.988-4.29 13.802-10.192h-66.456" fill="#E0E1E1"/><path d="M63.157 146.04h52.655c3.142 0 5.88-1.71 7.348-4.246H55.81c1.47 2.536 4.206 4.247 7.347 4.247" fill="#CDCCCB"/><path d="M156.578 39.032h-97.32l97.32 93.014V39.032" fill="#ECECEC"/><ellipse fill="#F1AE23" cx="155" cy="30" rx="14" ry="14"/><path d="M121.623 21c5.523 0 10-4.48 10-10.004 0-5.524-4.477-10.003-10-10.003-5.524 0-10.002 4.48-10.002 10.003C111.62 16.52 116.1 21 121.624 21z" fill="#F1AE23"/><path d="M122.415 10.31c-.748-.356-1.22-.598-1.426-.732-.2-.132-.347-.27-.436-.41-.092-.144-.14-.303-.14-.488-.005-.3.106-.54.334-.722.224-.18.546-.264.972-.254.357.007.715.06 1.087.158.368.09.835.257 1.4.485l.71-1.623c-.545-.233-1.067-.42-1.565-.552-.217-.057-.435-.096-.658-.132l-.005-1.15-1.93-.045.006 1.174c-.642.097-1.183.295-1.603.623-.628.492-.942 1.17-.935 2.05 0 .47.1.878.293 1.23.196.353.456.67.782.935.322.272.81.56 1.452.858.69.328 1.147.56 1.373.706.224.147.4.294.51.45.117.157.178.332.18.525 0 .345-.127.61-.39.777-.262.172-.636.25-1.128.24-.407-.008-.86-.08-1.354-.216-.495-.135-1.098-.36-1.812-.674l.01 1.955c.79.382 1.687.59 2.682.646l.01 1.098 1.93.046-.01-1.272c.478-.12.896-.303 1.238-.557.684-.498 1.02-1.198 1.017-2.096-.007-.646-.19-1.198-.56-1.65-.37-.456-1.047-.916-2.035-1.383zM156.127 29.018c-1.064-.508-1.736-.853-2.03-1.043-.283-.188-.492-.386-.618-.585-.13-.203-.2-.43-.2-.693-.007-.425.15-.77.475-1.027.32-.255.777-.376 1.384-.36.506.01 1.016.086 1.544.223.524.13 1.188.366 1.992.69l1.01-2.308c-.775-.333-1.518-.596-2.226-.785-.31-.082-.62-.137-.937-.188l-.006-1.635-2.746-.066.01 1.67c-.912.14-1.682.423-2.28.89-.893.7-1.34 1.665-1.33 2.917 0 .666.143 1.248.416 1.75.278.502.648.95 1.113 1.33.456.386 1.15.795 2.064 1.22.984.467 1.63.796 1.953 1.004.32.21.568.42.726.642.167.222.253.473.254.746 0 .492-.18.866-.552 1.106-.374.244-.905.356-1.605.342-.58-.012-1.224-.116-1.926-.308-.705-.192-1.562-.512-2.578-.96l.016 2.783c1.123.545 2.4.843 3.814.92l.015 1.564 2.747.065-.016-1.81c.683-.173 1.278-.432 1.764-.793.972-.71 1.45-1.707 1.446-2.984-.01-.92-.272-1.704-.798-2.35-.525-.646-1.49-1.3-2.895-1.965z" fill="#FFF"/><path fill="#00B1DD" d="M34 47h84v16H34z"/><path fill="#F1AE23" d="M124 47h22v16h-22z"/><path d="M137.614 51.74l-4.02 4.316-1.47-1.472-.726-.725-1.45 1.45.725.725 2.218 2.218.748.747.725-.768 4.744-5.085.704-.747-1.492-1.408-.704.747z" fill="#FFF"/><path fill="#CFD8DC" d="M34 70h112v30H34zM34 107h53v17H34zM93 107h53v17H93z"/></g></svg>